<svg xmlns="http://www.w3.org/2000/svg" viewBox="0 0 356.492 401.521"><path stroke="#176f73" stroke-linecap="round" stroke-width="var(--mesh-stroke, 0.96)" d="m264.53 210.464-21.615-6.357m0 0-69.804 8.74m0 0-32.436 1.457m0 0-62.316-71.24m.001 0-.7-31.795m0 .001 36.062 8.45m0 0 36.13 3.46m-.001 0 10.79 58.7m0 0-23.08 67.84m0 0-8.013 30.283m0 0L85.46 322.106m0 0 2.596-44.949m0 0 13.09-49.476m-.001 0 67.892-27.566m0 0 26.766-3.322m0 0 62.655 8.177m0 0-20.91 27.212m0 0-40.812 6.511m0 0-57.627-46.26m.001 0-14.61-4.62m0 0-60.148-42.267m0 0 41.425-60.13m0 0 19.211 47.497m0 0-7.334 37.827m0 0 21.184 31.94m0 0-16.376 78.212m0 0-13.369-3.24m0 0-30.404 2.03m.001-.001 16.321-25.759m0 0 21.352-45.359m0 0 70.47-29.59m-.001 0 68.727.607m.001 0 8.97 30.884m1.53 4.483-39.346 19.587m0 0-38.664-13.302m0 0-55.672-30.26m0 0-19.754-14.762m0 0-35.24-29.508m0 0 33.276-21.1m0-.001 32.095 31.461m0 0-10.875 34.405m0 0-13.606 79.268m0 0-6.452 39.85m0-.001L62.6 304.905m0 0 23.285-31.55m0-.001 13.248-35.64m0 0 32.725-46.044m0 0 71.163 20.083m0 0 42.9-32.794m0 .001-7.124 21.534m0 0-53.86 10.448m0 0-52.586-19.603m0 .001-48.033-16.573m0 0 3.923-51.342m0 0 1.964-21.91m0 0 23.42-12.909m-.001 0 35.933 57.491m0 0-16.61 44.643m-.001 0-19.482 54.162m0 0-5.685 37.272m.001 0 1.106 14.95m0-.001-25.81-74.232m0 0 49.875-32.314m0 0 57.624-1.818m0 .001 89.578.425m0 0-14.093 25.762m-3.166 5.681-4.893 2.074m0 0-43.353 28.466m0 0-76.509-57.41m.001-.001-18.609-4.403m0 0-3.042-27.256m.001 0-13.534-48.236m0 0 4.39 62.606m0 0 34.347 29.086m0 0-25.756 95.43m0-.001-10.128 22.598m.001 0-14.53-8.716m0 0-41.743-8.12m0-.001 38.575-41.854m0 0 28.486-53.55m0 0 80.776-18.535m0 0 32.838-7.698m0 0-12.302 30.958m0 0-44.892-4.109m0 0-36.263 4.314m0 0-38.64-77.89m-.001 0L64.04 118.544m0 .001-1.466-21.922m0 0 15.664-22.277m0 0 62.585 49.946m0 0 19.356 55.41m.001-.001-14.767 76.722m0 0-9.115-5.569m0 0-14.824 38.466m0 0-12.126-59.686m0 0 60.832-32.059m0 0 30.551-30.614m0 0 80.881-6.433m0 0-18.718 60.1m14.451-32.178 6.331 17.053m0 0-58.63 36.312m0 0-62.523-23.576m0 .001-45.197-40.336m0 0-18.559-35.257m0 0 17.634-4.127m0 0 40.297 49.484m0 0 2.823 43.37m0-.001-20.286 77.266m0 .001-22.904 40.664m0 0-51.6-27.874m0 0-29.238 3.61m0 0 18.987-67.86m0 .001 64.228-28.622m0 .001 36.756-26.74m0 0 70.96-21.477m0 0-31.677 46.384m0 0-23.975-.364m0 0-73.308-38.45m0-.001-27.892-48.996m0 0-12.694-29.16m0-.001L53.203 52.94m0 0 26.172 13.31m0 0 43.218 46.657m0 0 30.141 54.72m0-.001 8.38 75.61m-.001 0-48.27 3.83m-.001-.001L81.22 234.071m0 0 27.004 8.632m0 0 59.13-63.296m-.001 0 68.011-22.387m0 0 47.756-.985m0 0-5.775 32.414m41.108 26.183-23.799 16.758m0 0-69.504 30.165m0 0-63.387-19.57m0 0-22.93-42.968m0 0-8.75-42m-.001-.001 4.372-15.348m0 0 19.76 41.4m-.001-.001-14.145 64.456m0 0-22.35 71.131m0 0-19.382 11.598m0 0L68.324 357.92m0 0L41.28 332.254m0 0 37.921-47.665m0 .001 50.997-42.155m0 0 43.956-28.545m0 0 36.95-7.698m-.001 0-10.388-10.866m0 0-54.602-.157m0 .001-40.259 8.443m0 0-31.657-65.216m0 0L50.131 72.482m0 0 5.32-32.443m0 .001 44.5 24.59m0 0 22.835 43.634m0 0 25.59 74.305m-.001.001-6.828 13.248m0 0-13.85 58.112m-.001 0-18.987-8.535m.001 0 .736-43.57m0 0 67.502-28.015m0 0 37.287-35.59m0 0 75.067 23.876m0 0 29.151 52.536m6.582-14.332-36.269 51.71m0 0-34.839-23.867m0 0-73.808-7.489m.001 0-41.103-24.21m0 0 .506-27.152m0 0-9.29-4.477m-.001 0 15.854 22.655m0 0 11.582 49.37m0 0-4.979 90.886m.001 0-44.425 17.242m0 0L57.66 355.31m0 0L33.1 321.445m.001 0 23.95-39.195m-.001 0 44.274-45.962m0 0 41.697-51.144m0 0 50.935 19.61m0 0 3.146 10.701m0 0-59.754-26.673m0 0-17.412-18.978m0 0-77.752-52.73m0-.001L33.27 88.671m0 0 32.914-29.96m0-.001 50.988-22.415m0 0L115.97 75.97m0 0 18.576 50.066m0 0-10.203 74.958m0 0 18.314 61.181m0 0-22.112-13.02m0-.001 1.314-45.25m.001 0 55.95-47.727m0 0 68.963 1.28m0 0 46.024 21.251m0 0 32.238 21.591m-4.825 10.354-20.88 33.97m0 0-35.909-4.4m0-.001-49.33-8.599m-.001 0-78.764-36.469m0 0 7.99-28.673m-.001 0 9.668 5.573m0 0-20.55 31.088m0 0 20.126 53.933m.001 0-30.236 84.212m0 0-35.013 45.234m0 0-35.603-8.61m0 0L15 318.14m0 0 37.577-14.806m0 0 42.734-82.368m0 0 25.04-6.227m0 .001 42.97 4.205m0 0 1.15-3.4m-.001-.001-32.603-1.236m0 0-53.769-52.717m0 0-48.656-51.646m0 0-7.296-34.333m0 0 6.858-46.758m0 0 42.181 1.12m0-.001 48.001 62.533m0 0 8.395 52.722m0 0 30.738 34.278m.001 0-23.238 50.434m0 0-26.407 3.734m0 0 48.578-50.092m0 0 60.385-34.353m0 .001 49.358 22.4m0 0 32.048 16.375m0 0 21.165 22.648m16.708-17.198-2.164 39.908m0 0-46.688 37.603m0 0-72.774-39.657m0 .001-58.207-10.86m0 0-3.975-18.748m.001 0 4.166-7.247m0 0 3.058 35.59m0 0-9.378 62.372m0 0-43.499 51.693m0 0-8.399 40.508m0 0-45.445-2.567m0 0-18.648-44.756m0 0L22.38 304.003m0 0 32.238-62.077m0 0 54.68-25.962m0 0 50.046-14.08m0-.001-7.8-4.214m0 .001-48.024-3.372m0 0-25.163-23.217m0 0-53.599-54.579m0 0L21.966 80.48m0 0L37.32 41.763m0 .001L89.921 15m0 0 33.616 75.102m0 0 7.573 41.093m0 0 15.09 29.268m0 0-20.92 36.68m0-.001-5.78 1.658m0 0 55.316-19.532m0 0 34.537-20.428m0 0 67.188-.543m0 0 64.95 24.31m0 0-4.574 10.848m-72.387 17.009 1.53 4.483m-23.145-10.84-16.2 30.427m-53.604-21.687 14.94 8.385m-47.376-6.928-8.297-23.332M78.36 143.064l34.264 33.146M77.66 111.27l-.276 35.432m36.338-26.982-3.062 5.881m39.191-2.421-7.096 33.882m17.886 24.818-28.76 9.587m5.68 58.253-19.287 21.015m11.274 9.268-17.726 30.581M85.46 322.106l-22.86-17.2m25.456-27.749-2.17-3.803m15.259-45.673-2.012 10.033m69.904-37.599-37.179-8.445m63.945 5.123 7.218 14.96m55.437-6.783-12.537-26.01m-8.373 53.222 1.25-31.688m-42.062 38.199-11.799-27.75m-45.827-18.51-6.759-1.094m-7.851-3.526-40.182-13.046m-19.966-29.221 23.89-22.12m17.535-38.01-15.572 16.1m34.783 31.397-11.364-44.307m4.03 82.134 31.903-24.643m-10.719 56.583-5.892-11.94m-10.484 90.152-8.998-35.99m-4.371 32.75-1.314 4.522m-29.089-2.493 30.196 17.442m-13.875-43.201-11.935-31.03m33.287-14.329 16.588-17.986m53.881-11.604 3.743 9.786m64.985-9.179 24.593 9.605m-15.623 21.279 1.53 4.483m0 0-3.166 5.681m-36.18 13.906 31.287-11.832m-69.951-1.47 26.598 29.936m-82.27-60.196 5.761 2.785m-25.515-17.547 6.907 13.144m-42.147-42.652 39.105 15.396m-5.829-36.497-7.704-11.739m39.799 43.2-35.409 19.406m24.534 14.999 9.813 14.087m-23.419 65.181-2.337 30.248m-4.115 9.601-6.013 12.997M62.6 304.905l28.68 9.96m-5.395-41.511-36.348 33.39m49.596-69.03-11.02 27.176m43.745-73.22-15.26 19.67m86.423.413-5.647-18.948m48.547-13.845-15.709 6.147m8.585 15.387-20.887 15.571m-32.973-5.123-11.919 1.014m-40.667-20.616 4.404 24.93m-52.437-41.503 13.796-36.388m-9.873-14.954-24.2-4.88m26.164-17.03-27.63-4.892m51.049-8.017-35.386-14.26m71.319 71.751-8.734-21.805m-7.877 66.448 27.233-11.039m-46.715 65.201 31.95 11.521m-37.634 25.751 28.518-31.32m-27.412 46.269 12.588-7.803m-38.398-66.429 26.272 6.743m23.603-39.057 37.23 6.998m20.394-8.815 10.156-21.799m79.422 22.224 1.46-28.657m-15.553 54.419-3.166 5.681m0 0 14.451-32.179m-19.344 34.253 25.675-17.199m-69.028 45.665 10.398-9.353m-86.906-48.058 24.383 24.482m-42.992-28.885-2.205-11.45m-.836-15.806-17.723-19.45m4.189-28.786 13.445 24.658m-9.055 37.948 49.352 11.536m-15.005 17.55 17.828 25.82m-43.584 69.609 23.298 7.656m-33.425 14.942 10.521 25.723M91.28 314.865l-26.549 6.565m-15.194-14.686L35.493 325.04m52.619-60.15-33.633-7.709m62.119-45.841 2.11 17.22m78.666-35.755-41.91 9.015m74.748-16.713-3.788-4.764m-8.514 35.722-23.163 10.662m-21.729-14.771-2.246 14.407m-34.017-10.093-39.29-28.358m.649-49.532-28.542.536m-5.532-20.371-7.162-8.79m5.696-13.132-9.37-43.684m25.034 21.407 1.137-8.096m61.448 58.042-18.23-11.385m37.587 66.794-7.446-12.075m-7.321 88.797 15.7-13.187m-24.815 7.618-23.456-3.789m8.632 42.255L81.22 234.071m28.128-4.437-1.124 13.07m61.956-45.129-2.827-18.168m33.378-12.446 34.633-9.94m46.248 3.507 1.508-4.493m-20.226 64.593 14.451-32.179m0 .001 41.108 26.182m-34.777-9.129 10.978 25.887m-69.608 10.425.104 19.74m-62.627-43.315-.76 23.745m-44.437-64.081 21.507 21.113m-40.066-56.37 31.315 14.37m-13.681-18.497 18.053 3.148m22.244 46.336-2.485-4.937m5.308 48.306-19.453 16.15m-.833 61.117-21.517 10.014m-1.387 30.65-17.995-19.052m-33.605-8.822 3.593 36.49m-32.831-32.88 5.787 7.214m13.2-75.073L79.2 284.59m39.508-56.03 11.49 13.875m25.266-40.615 18.69 12.07m52.27-33.547-15.32 25.85m-16.357 20.534 5.968-31.4m-29.943 31.036-24.659-31.194m-48.649-7.257 8.39 15.701m-36.282-64.697 4.625-.519m-17.319-28.642-6.747-37.273m3.072-19.542 2.248-12.9m23.924 26.21 20.576-1.62m22.642 48.277.193-4.643m29.948 59.362-4.359 14.943m12.738 60.667-19.566-47.418m-28.705 51.247 14.854 6.865M81.22 234.071l27.49 11.324m-.486-2.692 1.222-40.878m57.907-22.418 9.595-5.597m58.416-16.79-21.129-18.8m68.885 17.815 6.182 6.061m-11.957 26.354 41.108 26.182m0 0 6.582-14.333m-30.381 31.091-5.888 20.62m-63.616 9.545 28.777-33.412m-92.164 13.842 18.356-21.33m-41.286-21.638.184-2.573m-8.935-39.428 9.441 12.276m-5.069-27.624-4.222 23.147m23.981 18.252-8.127 4.403m-6.018 60.053 17.6-10.684m-39.95 81.815 34.971 9.072m-54.353 2.526 9.93 14.716M68.324 357.92l-10.665-2.61M41.28 332.254l-8.179-10.809m46.1-36.855-22.15-2.34m73.147-39.815-28.874-6.147m72.83-22.398-31.133-28.746m68.082 21.048-17.147-1.438m6.759-9.428-3.613 20.13m-50.989-20.286-8.765-6.388m-31.494 14.831 14.082-33.809m-45.739-31.407-32.013-21.324m7.947-44.591L33.27 88.672M55.451 40.04l10.733 18.67m33.767 5.92 17.221-28.335m5.614 71.969L115.97 75.97m32.405 106.6-13.829-56.534m7.001 69.782-17.204 5.176m3.353 52.936 14.961 8.245m-33.947-16.78 11.835 3.76m-11.099-47.33 12.413 2.08m55.089-30.095.862-17.633m36.425-17.957 32.538 19.237m42.529 4.639 3.495 16.612m25.656 35.924 6.582-14.333m0 .001-4.826 10.353m-31.443 41.357 10.563-7.387m-45.402-16.48 9.494 12.08m-83.301-19.569 33.97 10.97m-75.073-35.18-3.69-1.29m4.196-25.862 3.792-2.81m-13.083-1.667 22.751 7.24m-6.897 15.415-13.653 15.672m25.235 33.698-5.109 20.235m.131 70.651-30.366 13.561m-14.059 3.681-20.954 41.553M57.66 355.31l-5.952 22.601m-18.607-56.466-18.1-3.306M57.05 282.25l-4.473 21.084m48.747-67.046-6.013-15.322m47.71-35.822-22.67 29.595m73.605-9.985-30.635 14.191m33.781-3.49-32.632.09m-27.122-26.763-5.48 25.526m-11.932-44.504-41.838-8.213m-35.914-44.518-12.742-7.128m3.828-21.274L22.145 75.612M66.184 58.71l-37.18-29.856m88.168 7.441-45.987-6.322M115.97 75.97l3.216 16.536m15.36 33.53-6.965 19.192m-3.238 55.766 33.976-21.488m-15.662 82.669-7.575-32.235m-14.537 19.214-11.87-15.48m13.185-29.77 35.393-20.322m20.557-27.405 39.828-6.948m29.135 8.228 20.223 14.172m25.801 7.079 6.247 9.297m25.991 12.295-4.826 10.353m.001 0 16.707-17.198m-37.587 51.168 35.423-11.26m-71.332 6.859 24.644 30.744m-73.975-39.343 1.201-.314m-79.965-36.155 21.758 25.295m-13.769-53.968 9.794 35.221m-.126-29.648 4.293 22.401m-24.843 8.687 27.901 26.903m-7.774 27.03-1.604 35.342m-28.632 48.87-14.867 2.823m-20.146 42.411 11.747-1.903m-47.35-6.707 1.905 4.14M15 318.14l19.965 19.155m17.612-33.961-30.198.67m72.932-83.038-40.693 20.96m65.733-27.186-11.053 1.224m54.023 2.981-3.977-17.062m5.126 13.661-12.926-17.875m-19.677 16.639-28.347-20.01m-25.422-32.707.26 9.49m-48.916-61.136-4.684 6.557m-2.612-40.89-.18 4.867m7.038-51.625 8.316 12.91m33.865-11.791L89.921 15m29.265 77.506 4.351-2.404m4.044 55.126 3.53-14.033m27.209 48.311-12.12-19.043m-11.118 69.477-9.803-32.798m-16.604 36.532L119.5 198.8m37.753-15.218 17.563-4.314m42.822-30.038-8.285 9.61m57.643 12.79 9.545-13.333m22.503 29.708 42.447-5.398m-21.281 28.046 16.707-17.198" vector-effect="non-scaling-stroke"/></svg>